HIERARCHY
ROOT Hips
{
  OFFSET 0 0 0
  CHANNELS 6 Xposition Yposition Zposition Zrotation Xrotation Yrotation
  JOINT Spine
  {
    OFFSET 0 10 0
    CHANNELS 3 Zrotation Xrotation Yrotation
    JOINT Neck
    {
      OFFSET 0 30 0
      CHANNELS 3 Zrotation Xrotation Yrotation
      JOINT Head
      {
        OFFSET 0 8 0
        CHANNELS 3 Zrotation Xrotation Yrotation
        End Site
        {
          OFFSET 0 10 0
        }
      }
    }
    JOINT LeftArm
    {
      OFFSET 15 30 0
      CHANNELS 3 Zrotation Xrotation Yrotation
      JOINT LeftForeArm
      {
        OFFSET 25 0 0
        CHANNELS 3 Zrotation Xrotation Yrotation
        JOINT LeftHand
        {
          OFFSET 25 0 0
          CHANNELS 3 Zrotation Xrotation Yrotation
          End Site
          {
            OFFSET 10 0 0
          }
        }
      }
    }
    JOINT RightArm
    {
      OFFSET -15 30 0
      CHANNELS 3 Zrotation Xrotation Yrotation
      JOINT RightForeArm
      {
        OFFSET -25 0 0
        CHANNELS 3 Zrotation Xrotation Yrotation
        JOINT RightHand
        {
          OFFSET -25 0 0
          CHANNELS 3 Zrotation Xrotation Yrotation
          End Site
          {
            OFFSET -10 0 0
          }
        }
      }
    }
  }
  JOINT LeftUpLeg
  {
    OFFSET 10 -10 0
    CHANNELS 3 Zrotation Xrotation Yrotation
    JOINT LeftLeg
    {
      OFFSET 0 -35 0
      CHANNELS 3 Zrotation Xrotation Yrotation
      JOINT LeftToe
      {
        OFFSET 0 -40 0
        CHANNELS 3 Zrotation Xrotation Yrotation
        JOINT LeftToeEnd
        {
          OFFSET 0 0 0
          CHANNELS 3 Zrotation Xrotation Yrotation
          End Site
          {
            OFFSET 0 0 15
          }
        }
      }
    }
  }
  JOINT RightUpLeg
  {
    OFFSET -10 -10 0
    CHANNELS 3 Zrotation Xrotation Yrotation
    JOINT RightLeg
    {
      OFFSET 0 -35 0
      CHANNELS 3 Zrotation Xrotation Yrotation
      JOINT RightToe
      {
        OFFSET 0 -40 0
        CHANNELS 3 Zrotation Xrotation Yrotation
        JOINT RightToeEnd
        {
          OFFSET 0 0 0
          CHANNELS 3 Zrotation Xrotation Yrotation
          End Site
          {
            OFFSET 0 0 15
          }
        }
      }
    }
  }
}
MOTION
Frames:	17
Frame Time:	0.0333333 
5.60742 70.5668 -92.7752 -0.555107 13.2869 0.0154934 0.913378 21.8557 0.770227 -5.48735 -25.9593 -5.58102 10.9372 -1.74903 -5.73928 -77.2731 28.2777 -15.0823 21.2175 -12.3731 -46.9171 -0.488249 -5.97623 -2.23138 84.5542 27.5919 10.547 -26.2231 -18.0091 54.6098 1.48849 -7.46776 -0.155139 9.13463 -60.183 6.92504 -31.9043 87.6336 33.9625 -3.57457 -35.4813 -3.71284 2.20695e-032 7.95139e-016 -1.59028e-015 -7.88578 -59.7982 -9.05021 69.0056 88.8905 -66.0442 -5.72451 -35.3327 -9.73328 1.39149e-015 1.59028e-015 -1.59028e-015 
5.41932 68.712 -92.9132 -0.554039 13.2207 -0.504176 0.591135 22.3678 1.29291 -5.67294 -26.0144 -5.37435 11.5533 -1.78727 -5.43694 -77.7535 27.7808 -15.676 22.0516 -13.4873 -49.1826 -0.697273 -7.27842 -2.24879 84.1453 28.1645 11.28 -26.4743 -18.6655 55.7932 1.54487 -8.38319 -0.154931 12.7416 -63.0338 10.2276 -152.781 87.0071 154.874 -4.71412 -35.7904 -5.68588 4.96962e-017 7.95139e-016 -0 -8.91472 -62.4078 -10.5144 162.489 86.2332 -159.385 -6.71678 -36.5045 -11.0562 1.98785e-016 1.59028e-015 -4.77083e-015 
5.36061 67.5076 -92.7003 -0.323475 12.4445 -0.758872 0.2044 22.5912 1.55806 -5.31717 -25.9167 -5.21457 11.1221 -0.524239 -5.6895 -78.6498 27.3668 -15.7333 22.6091 -14.5112 -51.1302 -0.735489 -6.23765 -2.10861 83.9985 28.4714 11.5994 -26.5872 -18.9168 56.2662 1.58721 -8.08985 -0.190264 13.4752 -63.671 10.9123 -166.208 84.1818 168.322 -4.93581 -36.5919 -5.835 4.96962e-017 1.59028e-015 7.95139e-016 -9.61817 -62.744 -11.488 169.967 83.284 -166.837 -7.84476 -37.712 -12.6729 -0 0 3.18055e-015 
5.37165 67.2775 -92.4186 -0.315668 11.7867 -0.532437 0.460895 22.309 1.45309 -5.363 -26.2651 -5.14844 10.6547 1.17473 -5.80579 -79.4137 27.5641 -15.7197 23.0898 -15.3378 -52.7367 -0.734698 -7.26323 -2.14876 84.1068 28.2851 11.6514 -26.6927 -19.1826 56.7677 1.61436 -7.53004 -0.2159 11.5504 -63.3003 8.47727 -168.078 83.4985 170.195 -4.59386 -37.0989 -5.08764 9.93923e-017 0 -7.95139e-016 -8.82377 -62.138 -10.6583 171.082 82.5454 -168.047 -8.90033 -38.0946 -14.6205 5.96354e-016 1.59028e-015 -0 
5.37959 68.3449 -91.9112 -0.211097 11.0876 -0.497815 0.525359 21.7387 1.48641 -5.45555 -26.2702 -5.11963 10.6665 1.44015 -5.83969 -79.8896 28.0366 -15.762 23.3001 -15.8112 -53.6195 -0.712434 -8.58142 -2.15143 84.6877 28.2525 10.7616 -26.8621 -19.8047 57.9004 1.64623 -8.16539 -0.179538 8.26096 -60.5368 4.96031 -163.017 85.8264 165.113 -3.92134 -37.4516 -3.97391 -3.97569e-016 0 3.97569e-016 -6.7656 -59.6741 -7.99184 167.957 84.9117 -165.013 -8.68907 -38.0079 -14.5072 -5.96354e-016 1.59028e-015 -4.77083e-015 
5.35162 70.4284 -91.3288 -0.396484 10.5223 -0.104349 0.76288 20.5704 1.12528 -5.48379 -25.5819 -5.11216 11.4778 0.727255 -5.33291 -80.5249 28.7366 -14.56 23.3722 -16.1017 -54.1279 -0.718062 -8.18236 -2.08599 85.6687 28.1258 9.58513 -26.9144 -20.0667 58.3979 1.65743 -7.92613 -0.172207 5.36815 -56.1825 1.61796 -37.9507 88.312 40.008 -2.90079 -37.6497 -2.36508 9.93923e-017 -7.95139e-016 -3.97569e-016 -4.50276 -55.2762 -5.88685 74.7317 89.0578 -72.0583 -9.25302 -37.64 -16.0646 -5.96354e-016 -7.95139e-016 -1.59028e-015 
5.30095 74.1181 -90.5184 -0.238942 9.20992 -0.237285 0.514646 19.7145 1.29703 -5.27102 -25.9101 -5.13217 11.3676 2.2331 -5.83228 -80.661 29.8961 -13.5254 23.1365 -15.6318 -53.2173 -0.777945 -8.63442 -2.12807 86.4584 28.1603 8.37309 -26.7855 -19.5969 57.5153 1.64166 -6.88476 -0.175886 3.57923 -48.0421 0.524663 -3.66549 78.9898 5.47652 -1.25056 -36.4923 0.297307 7.70291e-016 1.59028e-015 -0 -2.64871 -48.1027 -3.475 3.82115 80.8079 -1.38236 -7.38671 -35.4587 -14.0641 -9.93923e-016 0 -0 
5.36932 78.9427 -89.3041 -0.539464 7.10515 -0.44017 1.09248 18.328 1.27134 -5.46554 -24.4992 -4.74259 11.5384 4.14065 -5.62196 -81.7032 30.9408 -11.4435 22.4267 -14.4189 -50.8348 -0.792296 -9.42928 -2.17049 87.2699 28.4403 6.56905 -26.3627 -18.3638 55.2309 1.5705 -5.29897 -0.200559 3.34133 -37.7875 1.00406 -0.608359 66.8463 1.98353 -0.639791 -31.9857 1.41302 -4.22417e-016 7.95139e-016 -0 -2.04051 -38.5019 -3.33634 0.439273 69.009 1.7384 -3.86985 -30.2967 -9.48498 3.97569e-016 -7.95139e-016 -0 
5.49759 84.6686 -87.914 -0.363001 5.48686 -0.979007 1.30389 15.8585 1.55256 -5.35571 -23.5507 -4.27122 10.2739 8.25172 -5.84942 -82.9346 31.6552 -9.38407 21.1254 -12.3298 -46.7083 -0.878558 -8.88231 -2.27583 87.9652 28.1891 4.95947 -25.533 -16.3468 51.6303 1.48603 -2.70538 -0.343632 2.84911 -28.2791 1.10713 0.242995 53.0042 0.460041 -1.8745 -21.3901 -2.6461 7.45443e-017 3.18055e-015 -3.97569e-016 -2.34594 -29.6375 -3.51586 -0.50445 56.2389 2.49681 -0.202507 -19.8449 -4.06676 -1.98785e-016 0 7.95139e-016 
5.67379 91.1244 -86.6192 0.040674 5.50907 -1.59698 1.47764 12.1688 1.81448 -5.40097 -23.6213 -3.41658 9.49558 12.3592 -5.08364 -84.7924 30.8932 -7.12028 19.5633 -10.2583 -42.4211 -0.859822 -6.22683 -2.33016 88.6094 27.1461 3.68079 -24.3888 -14.1034 47.5847 1.44213 0.0195632 -0.567336 1.70467 -21.549 -1.0825 0.311978 39.1143 0.0231791 -1.16915 -4.37908 -3.51061 3.97569e-016 -3.18055e-015 1.59028e-015 -2.7531 -23.8244 -1.8938 -0.729352 42.9956 2.59436 2.08385 -2.76246 -1.15227 0 0 -3.97569e-016 
5.71 97.4318 -85.3604 0.780343 6.4689 -2.34244 1.09481 7.77034 1.74126 -5.61912 -22.7188 -2.99262 9.62271 14.6097 -4.53455 -87.1893 28.681 -3.41501 18.36 -8.88892 -39.4637 -0.633029 -4.19813 -2.45756 90.0264 26.2794 1.00573 -23.4363 -12.6493 44.8759 1.41217 0.127213 -0.621877 0.566785 -16.8475 -5.10129 0.194399 25.3658 -0.164241 -4.1322 16.3811 3.80352 -1.98785e-016 -3.18055e-015 7.95139e-016 -3.31845 -19.8915 1.12679 -0.674828 31.1992 2.66972 4.46316 11.8588 -6.26211 7.95139e-016 -6.36111e-015 -7.95139e-016 
5.77338 102.901 -84.978 1.09792 7.35952 -2.92584 1.19569 5.1589 2.07113 -5.75837 -22.3725 -2.62568 9.25567 15.1802 -4.30954 -88.4819 27.8973 -0.499619 18.093 -8.5685 -38.8707 -0.615385 -3.88113 -2.57043 90.2207 26.0915 -0.703966 -22.9804 -12.1623 43.8463 1.3494 -2.97828 -0.252315 0.634032 -17.252 -2.2177 0.0896943 24.2032 -0.175479 -2.62632 16.3263 0.195739 3.97569e-016 3.18055e-015 7.95139e-016 -3.53074 -19.6474 1.01919 -0.649816 29.4378 2.52038 6.74119 9.996 -14.3637 -7.95139e-016 -3.18055e-015 -0 
5.91355 107.839 -85.6792 1.22381 5.854 -3.52848 1.44335 7.7469 2.45999 -6.05767 -23.4778 -2.88047 8.48843 13.596 -4.77099 -88.0587 28.4898 -0.650116 18.1896 -8.67782 -39.1554 -0.475128 -5.93465 -2.66943 88.9243 27.578 -0.723747 -23.269 -12.6407 44.7228 1.34431 -4.4133 -0.10627 0.642987 -16.7801 1.88856 0.303556 28.4538 -0.300185 -1.57253 17.1747 -2.22374 0 9.54166e-015 -0 -4.05302 -19.059 -1.64453 -0.672202 31.8331 2.66798 6.47331 11.0036 -13.1681 1.59028e-015 3.18055e-015 -1.59028e-015 
5.99804 111.831 -86.5376 1.62224 4.69965 -3.7726 1.05797 10.1815 2.35194 -6.17774 -24.4072 -2.75184 8.31194 13.3929 -4.14819 -86.9044 28.6975 -1.28312 18.2514 -8.94826 -39.6383 -0.596946 -3.79655 -2.35781 86.6023 29.1752 1.24682 -23.0919 -12.4586 44.404 1.26252 -2.8726 -0.340323 0.319351 -17.3895 4.61988 0.536352 34.4398 -0.417082 -0.873942 16.5483 -3.89279 -5.96354e-016 -3.18055e-015 7.95139e-016 -4.70405 -20.0503 -3.11466 -0.73012 36.3837 2.94316 4.97121 10.5093 -9.24069 8.82781e-032 -3.18055e-015 1.59028e-015 
5.97991 114.9 -86.9304 1.20723 4.16112 -4.24956 1.11323 11.1543 2.69384 -5.2805 -23.9791 -2.14023 7.70223 13.0284 -3.25763 -85.7658 28.9668 -1.62397 18.2264 -8.8913 -39.5473 -0.603837 -3.03276 -2.39074 85.3923 30.931 1.74686 -23.146 -12.6109 44.712 1.23281 -2.92084 -0.370337 1.27198 -17.9859 6.01294 0.562917 37.6358 -0.500388 0.892331 15.9733 -8.40731 7.95139e-016 0 -1.59028e-015 -3.96567 -20.366 -3.1964 -0.752261 38.4327 3.09719 4.06416 9.97313 -6.58403 7.95139e-016 0 3.18055e-015 
6.00557 116.51 -87.1041 0.932146 4.02695 -3.8951 1.19842 10.735 2.91431 -3.58365 -22.3091 -1.87041 5.43965 12.6036 -4.19635 -84.6789 29.7752 -1.71629 17.9275 -8.59912 -38.9084 -0.642497 -3.02399 -2.38372 85.3625 30.3986 1.57866 -22.9275 -12.3309 44.1453 1.17538 -2.98119 -0.383326 1.42509 -18.0402 4.8414 0.499521 37.7049 -0.554049 1.96315 13.9173 -11.9379 -0 0 1.59028e-015 -3.4583 -20.359 -3.44052 -0.747374 38.7348 3.07654 3.31635 6.82716 -5.21882 -0 0 3.18055e-015 
6.07184 116.94 -87.0735 0.631776 4.69166 -3.09252 1.63742 9.44622 2.04327 -3.53172 -20.6486 -2.07909 5.81601 12.0761 -4.20765 -83.9357 29.4134 -2.04073 17.5353 -8.10226 -37.8392 -0.584004 -2.5834 -2.52294 85.3814 29.4848 1.44091 -22.5552 -11.8469 43.2027 1.13495 -3.36597 -0.358142 1.32024 -18.8904 2.59686 0.364473 36.1615 -0.462635 2.083 12.0924 -13.0194 2.38542e-015 -3.18055e-015 1.59028e-015 -2.98367 -20.069 -3.75793 -0.71208 36.6154 2.98805 3.64102 6.81287 -6.22005 -7.95139e-016 -3.18055e-015 3.18055e-015 
